<?xml version="1.0" encoding="UTF-8" standalone="no"?> <!-- Created with Vectornator for iOS (http://vectornator.io/) --><!DOCTYPE svg PUBLIC "-//W3C//DTD SVG 1.1//EN" "http://www.w3.org/Graphics/SVG/1.1/DTD/svg11.dtd">
<svg style="fill-rule:evenodd;clip-rule:evenodd;stroke-linecap:round;stroke-linejoin:round;" xmlns:vectornator="http://vectornator.io" xmlns:xlink="http://www.w3.org/1999/xlink" xmlns="http://www.w3.org/2000/svg" xml:space="preserve" version="1.1" viewBox="0 0 180 180">
<metadata>
<vectornator:setting key="DimensionsVisible" value="1"/>
<vectornator:setting key="SnapToGrid" value="0"/>
<vectornator:setting key="SnapToPoints" value="0"/>
<vectornator:setting key="GuidesVisible" value="1"/>
<vectornator:setting key="RulersVisible" value="1"/>
<vectornator:setting key="SnapToEdges" value="0"/>
<vectornator:setting key="DisplayWhiteBackground" value="0"/>
<vectornator:setting key="SnapToGuides" value="1"/>
<vectornator:setting key="GridSpacing" value="1"/>
<vectornator:setting key="Units" value="Pixels"/>
<vectornator:setting key="DynamicGuides" value="1"/>
<vectornator:setting key="New" value="1"/>
</metadata>
<defs/>
<g id="Layer 2" vectornator:layerName="Layer 2">
<path d="M90+9.26433e-07L90+9.26433e-07C139.706+9.26433e-07+180+40.2944+180+90L180+90C180+139.706+139.706+180+90+180L90+180C40.2944+180-5.13466e-06+139.706-5.13466e-06+90L-5.13466e-06+90C-5.13466e-06+40.2944+40.2944+9.26433e-07+90+9.26433e-07Z" opacity="1" fill="#262626"/>
</g>
<g id="Layer 1" vectornator:layerName="Layer 1">
<g opacity="1">
<path d="M69.5231+85.949L40.6687+85.949C39.9304+85.949+39.1357+85.8619+38.2846+85.6876C37.4335+85.5132+36.5927+85.2415+35.7622+84.8724C34.9316+84.5032+34.1369+84.0264+33.3781+83.442C32.6193+82.8575+31.9477+82.15+31.3632+81.3194C30.7788+80.4888+30.3122+79.525+29.9636+78.4278C29.6149+77.3306+29.4406+76.095+29.4406+74.721L29.4406+53.0648C29.4406+52.3265+29.5278+51.5318+29.7021+50.6807C29.8764+49.8296+30.1481+48.9888+30.5173+48.1583C30.8864+47.3277+31.3684+46.533+31.9631+45.7742C32.5578+45.0154+33.2705+44.3438+34.101+43.7593C34.9316+43.1749+35.8903+42.7083+36.9772+42.3597C38.0642+42.011+39.2946+41.8367+40.6687+41.8367L69.5231+41.8367L69.5231+49.8348L40.6687+49.8348C39.6228+49.8348+38.8229+50.1116+38.2692+50.6653C37.7155+51.2191+37.4387+52.0394+37.4387+53.1263L37.4387+74.721C37.4387+75.7464+37.7207+76.5411+38.2846+77.105C38.8486+77.669+39.6433+77.951+40.6687+77.951L69.5231+77.951L69.5231+85.949Z" opacity="1" fill="#2d3548"/>
</g>
<g opacity="1">
<path d="M75.1265+85.949L46.272+85.949C45.5337+85.949+44.7391+85.8619+43.888+85.6876C43.0369+85.5132+42.1961+85.2415+41.3655+84.8724C40.535+84.5032+39.7403+84.0264+38.9815+83.442C38.2227+82.8575+37.5511+82.15+36.9666+81.3194C36.3821+80.4888+35.9156+79.525+35.5669+78.4278C35.2183+77.3306+35.044+76.095+35.044+74.721L35.044+53.0648C35.044+52.3265+35.1312+51.5318+35.3055+50.6807C35.4798+49.8296+35.7515+48.9888+36.1207+48.1583C36.4898+47.3277+36.9717+46.533+37.5665+45.7742C38.1612+45.0154+38.8738+44.3438+39.7044+43.7593C40.535+43.1749+41.4937+42.7083+42.5806+42.3597C43.6675+42.011+44.898+41.8367+46.272+41.8367L75.1265+41.8367L75.1265+49.8348L46.272+49.8348C45.2261+49.8348+44.4263+50.1116+43.8726+50.6653C43.3189+51.2191+43.042+52.0394+43.042+53.1263L43.042+74.721C43.042+75.7464+43.324+76.5411+43.888+77.105C44.452+77.669+45.2466+77.951+46.272+77.951L75.1265+77.951L75.1265+85.949Z" opacity="1" fill="#2d3548"/>
</g>
<g opacity="1">
<path d="M118.072+72.9676C118.072+74.5467+117.872+75.9669+117.472+77.2281C117.072+78.4893+116.544+79.6019+115.888+80.5657C115.231+81.5296+114.462+82.3499+113.581+83.0267C112.699+83.7034+111.786+84.2571+110.843+84.6878C109.899+85.1185+108.941+85.4363+107.967+85.6414C106.992+85.8465+106.075+85.949+105.213+85.949L74.3594+85.949L74.3594+77.951L105.213+77.951C106.751+77.951+107.946+77.4998+108.797+76.5975C109.648+75.6951+110.074+74.4852+110.074+72.9676C110.074+72.2293+109.961+71.5525+109.735+70.9373C109.51+70.3221+109.187+69.7889+108.766+69.3377C108.346+68.8865+107.833+68.5379+107.228+68.2918C106.623+68.0457+105.952+67.9227+105.213+67.9227L86.8179+67.9227C85.5259+67.9227+84.1314+67.692+82.6343+67.2305C81.1372+66.7691+79.7478+66.0257+78.4661+65.0003C77.1844+63.9749+76.1179+62.6316+75.2669+60.9705C74.4158+59.3094+73.9903+57.2791+73.9903+54.8797C73.9903+52.4803+74.4158+50.4551+75.2669+48.8043C76.1179+47.1534+77.1844+45.8101+78.4661+44.7745C79.7478+43.7388+81.1372+42.9903+82.6343+42.5289C84.1314+42.0674+85.5259+41.8367+86.8179+41.8367L114.042+41.8367L114.042+49.8348L86.8179+49.8348C85.3003+49.8348+84.116+50.2962+83.2649+51.2191C82.4138+52.1419+81.9883+53.3621+81.9883+54.8797C81.9883+56.4178+82.4138+57.6329+83.2649+58.525C84.116+59.417+85.3003+59.8631+86.8179+59.8631L105.213+59.8631L105.275+59.8631C106.136+59.8836+107.049+60.0015+108.013+60.2169C108.977+60.4322+109.935+60.7654+110.889+61.2166C111.843+61.6678+112.75+62.2369+113.611+62.9239C114.473+63.6109+115.237+64.4363+115.903+65.4002C116.57+66.3641+117.098+67.4715+117.487+68.7225C117.877+69.9734+118.072+71.3885+118.072+72.9676Z" opacity="1" fill="#2d3548"/>
</g>
<g opacity="1">
<path d="M158.963+81.9192C158.963+82.4935+158.86+83.0267+158.655+83.5189C158.45+84.011+158.168+84.4366+157.809+84.7955C157.45+85.1544+157.025+85.4363+156.532+85.6414C156.04+85.8465+155.507+85.949+154.933+85.949L126.078+85.949C125.34+85.949+124.545+85.8619+123.694+85.6876C122.843+85.5132+122.002+85.2415+121.172+84.8724C120.341+84.5032+119.547+84.0264+118.788+83.442C118.029+82.8575+117.357+82.15+116.773+81.3194C116.188+80.4888+115.722+79.525+115.373+78.4278C115.025+77.3306+114.85+76.095+114.85+74.721L114.85+53.0648C114.85+52.3265+114.937+51.5318+115.112+50.6807C115.286+49.8296+115.558+48.9888+115.927+48.1583C116.296+47.3277+116.778+46.533+117.373+45.7742C117.968+45.0154+118.68+44.3438+119.511+43.7593C120.341+43.1749+121.3+42.7083+122.387+42.3597C123.474+42.011+124.704+41.8367+126.078+41.8367L158.594+41.8367L158.594+49.8348L126.078+49.8348C125.032+49.8348+124.233+50.1116+123.679+50.6653C123.125+51.2191+122.848+52.0394+122.848+53.1263L122.848+74.721C122.848+75.7464+123.13+76.5411+123.694+77.105C124.258+77.669+125.053+77.951+126.078+77.951L150.965+77.951L150.965+67.9227L129.677+67.9227L129.677+59.8631L154.933+59.8631C155.507+59.8631+156.04+59.9708+156.532+60.1861C157.025+60.4014+157.45+60.6937+157.809+61.0628C158.168+61.4319+158.45+61.8575+158.655+62.3394C158.86+62.8213+158.963+63.3392+158.963+63.8929L158.963+81.9192Z" opacity="1" fill="#2d3548"/>
</g>
<g opacity="1">
<path d="M109.022+137.862L94.5845+137.862L94.5845+152.299L85.0279+152.299L85.0279+137.862L70.5494+137.862L70.5494+128.264L85.0279+128.264L85.0279+113.826L94.5845+113.826L94.5845+128.264L109.022+128.264L109.022+137.862Z" opacity="1" fill="#2d3548"/>
</g>
</g>
<g id="Layer 1 Copy" vectornator:layerName="Layer 1 Copy">
<g opacity="1">
<path d="M64.4238+83.3291L39.6914+83.3291C39.0586+83.3291+38.3774+83.2544+37.6479+83.105C36.9185+82.9556+36.1978+82.7227+35.4858+82.4063C34.7739+82.0898+34.0928+81.6812+33.4424+81.1802C32.792+80.6792+32.2163+80.0728+31.7153+79.3608C31.2144+78.6489+30.8145+77.8228+30.5156+76.8823C30.2168+75.9419+30.0674+74.8828+30.0674+73.7051L30.0674+55.1426C30.0674+54.5098+30.1421+53.8286+30.2915+53.0991C30.4409+52.3696+30.6738+51.6489+30.9902+50.937C31.3066+50.2251+31.7197+49.5439+32.2295+48.8936C32.7393+48.2432+33.3501+47.6675+34.062+47.1665C34.7739+46.6655+35.5957+46.2656+36.5273+45.9668C37.459+45.668+38.5137+45.5186+39.6914+45.5186L64.4238+45.5186L64.4238+52.374L39.6914+52.374C38.7949+52.374+38.1094+52.6113+37.6348+53.0859C37.1602+53.5605+36.9229+54.2637+36.9229+55.1953L36.9229+73.7051C36.9229+74.584+37.1646+75.2651+37.6479+75.7485C38.1313+76.2319+38.8125+76.4736+39.6914+76.4736L64.4238+76.4736L64.4238+83.3291Z" opacity="1" fill="#2d64ec"/>
<path d="M107.244+72.2021C107.244+73.5557+107.073+74.773+106.73+75.854C106.387+76.9351+105.935+77.8887+105.372+78.7148C104.81+79.541+104.15+80.2441+103.395+80.8242C102.639+81.4043+101.856+81.8789+101.048+82.248C100.239+82.6172+99.4175+82.8896+98.5825+83.0654C97.7476+83.2412+96.9609+83.3291+96.2227+83.3291L69.7764+83.3291L69.7764+76.4736L96.2227+76.4736C97.541+76.4736+98.5649+76.0869+99.2944+75.3135C100.024+74.54+100.389+73.5029+100.389+72.2021C100.389+71.5693+100.292+70.9893+100.099+70.4619C99.9053+69.9346+99.6284+69.4775+99.2681+69.0908C98.9077+68.7041+98.4683+68.4053+97.9497+68.1943C97.4312+67.9834+96.8555+67.8779+96.2227+67.8779L80.4551+67.8779C79.3477+67.8779+78.1523+67.6802+76.8691+67.2847C75.5859+66.8892+74.395+66.252+73.2964+65.373C72.1978+64.4941+71.2837+63.3428+70.5542+61.9189C69.8247+60.4951+69.46+58.7549+69.46+56.6982C69.46+54.6416+69.8247+52.9058+70.5542+51.4907C71.2837+50.0757+72.1978+48.9243+73.2964+48.0366C74.395+47.1489+75.5859+46.5073+76.8691+46.1118C78.1523+45.7163+79.3477+45.5186+80.4551+45.5186L103.79+45.5186L103.79+52.374L80.4551+52.374C79.1543+52.374+78.1392+52.7695+77.4097+53.5605C76.6802+54.3516+76.3154+55.3975+76.3154+56.6982C76.3154+58.0166+76.6802+59.0581+77.4097+59.8228C78.1392+60.5874+79.1543+60.9697+80.4551+60.9697L96.2227+60.9697L96.2754+60.9697C97.0137+60.9873+97.7959+61.0884+98.6221+61.273C99.4482+61.4575+100.27+61.7432+101.087+62.1299C101.905+62.5166+102.683+63.0044+103.421+63.5933C104.159+64.1821+104.814+64.8896+105.385+65.7158C105.957+66.542+106.409+67.4912+106.743+68.5635C107.077+69.6357+107.244+70.8486+107.244+72.2021Z" opacity="1" fill="#2d64ec"/>
<path d="M150.249+79.875C150.249+80.3672+150.161+80.8242+149.985+81.2461C149.81+81.668+149.568+82.0327+149.26+82.3403C148.953+82.648+148.588+82.8896+148.166+83.0654C147.744+83.2412+147.287+83.3291+146.795+83.3291L122.062+83.3291C121.43+83.3291+120.749+83.2544+120.019+83.105C119.29+82.9556+118.569+82.7227+117.857+82.4063C117.145+82.0898+116.464+81.6812+115.813+81.1802C115.163+80.6792+114.587+80.0728+114.086+79.3608C113.585+78.6489+113.186+77.8228+112.887+76.8823C112.588+75.9419+112.438+74.8828+112.438+73.7051L112.438+55.1426C112.438+54.5098+112.513+53.8286+112.663+53.0991C112.812+52.3696+113.045+51.6489+113.361+50.937C113.678+50.2251+114.091+49.5439+114.601+48.8936C115.11+48.2432+115.721+47.6675+116.433+47.1665C117.145+46.6655+117.967+46.2656+118.898+45.9668C119.83+45.668+120.885+45.5186+122.062+45.5186L149.933+45.5186L149.933+52.374L122.062+52.374C121.166+52.374+120.48+52.6113+120.006+53.0859C119.531+53.5605+119.294+54.2637+119.294+55.1953L119.294+73.7051C119.294+74.584+119.536+75.2651+120.019+75.7485C120.502+76.2319+121.184+76.4736+122.062+76.4736L143.394+76.4736L143.394+67.8779L125.147+67.8779L125.147+60.9697L146.795+60.9697C147.287+60.9697+147.744+61.062+148.166+61.2466C148.588+61.4312+148.953+61.6816+149.26+61.998C149.568+62.3145+149.81+62.6792+149.985+63.0923C150.161+63.5054+150.249+63.9492+150.249+64.4238L150.249+79.875Z" opacity="1" fill="#2d64ec"/>
<path d="M102.366+136.354L93.085+136.354L93.085+145.635L86.9414+145.635L86.9414+136.354L77.6338+136.354L77.6338+130.184L86.9414+130.184L86.9414+120.902L93.085+120.902L93.085+130.184L102.366+130.184L102.366+136.354Z" opacity="1" fill="#2d64ec"/>
</g>
</g>
</svg>
